<svg width="72" height="72" viewBox="0 0 72 72" fill="none" xmlns="http://www.w3.org/2000/svg">
<path opacity="0.72" d="M49.5988 11.8125L60.4969 17.6552C65.4309 20.7855 64.2467 28.2168 60.4975 34.265L49.5659 28.4014C53.3455 22.2894 54.492 14.7565 49.5988 11.8125Z" fill="#00CBFE"/>
<path opacity="0.88" d="M45.0784 42.4736L34.1499 36.6518L49.5661 28.4014L60.4977 34.265L45.0784 42.4736Z" fill="#00CBFE"/>
<path d="M45.0937 25.869L34.1652 20.0544L34.1348 53.248L45.0633 59.0625L45.0937 25.869Z" fill="#00CBFE"/>
<path opacity="0.8" d="M45.0936 25.869L34.165 20.0544L49.5989 11.8125L60.497 17.6552L45.0936 25.869Z" fill="#00CBFE"/>
<path opacity="0.72" d="M22.0783 30.0889L11.1467 35.9525C6.21273 39.0827 7.39691 46.5073 11.1461 52.556L22.0947 46.6817C18.3151 40.5697 17.1851 33.0328 22.0783 30.0889Z" fill="#0049FC"/>
<path opacity="0.88" d="M26.5812 60.75L37.5098 54.9354L22.0947 46.6816L11.1461 52.556L26.5812 60.75Z" fill="#0049FC"/>
<path d="M26.5508 27.5565L37.4793 21.7419L37.5098 54.9355L26.5812 60.75L26.5508 27.5565Z" fill="#0049FC"/>
<path opacity="0.8" d="M26.551 27.5565L37.4795 21.7419L22.0456 13.5L11.1475 19.3427L26.551 27.5565Z" fill="#0049FC"/>
</svg>
